<svg viewBox="0 0 800 400" width="100%" height="100%" xmlns="http://www.w3.org/2000/svg">
    <defs>
        <filter id="s1g" x="-50%" y="-50%" width="200%" height="200%"><feGaussianBlur stdDeviation="3"/><feMerge><feMergeNode/><feMergeNode in="SourceGraphic"/></feMerge></filter>
        <filter id="s1g2" x="-50%" y="-50%" width="200%" height="200%"><feGaussianBlur stdDeviation="6"/><feMerge><feMergeNode/><feMergeNode in="SourceGraphic"/></feMerge></filter>
        <filter id="s1shadow" x="-20%" y="-20%" width="140%" height="140%"><feDropShadow dx="2" dy="3" stdDeviation="4" flood-color="#1B2A22" flood-opacity="0.12"/></filter>
        <filter id="s1lift" x="-10%" y="-10%" width="130%" height="130%"><feDropShadow dx="3" dy="4" stdDeviation="6" flood-color="#1B2A22" flood-opacity="0.18"/></filter>
        <radialGradient id="s1rg" cx="50%" cy="50%" r="50%"><stop offset="0%" stop-color="#33CCFF" stop-opacity="0.1"/><stop offset="100%" stop-color="#F7F4EB" stop-opacity="0"/></radialGradient>
        <radialGradient id="s1heat1" cx="50%" cy="45%" r="45%"><stop offset="0%" stop-color="#FF5B62" stop-opacity="0.7"/><stop offset="40%" stop-color="#F59E0B" stop-opacity="0.35"/><stop offset="100%" stop-color="#F7F4EB" stop-opacity="0"/></radialGradient>
        <radialGradient id="s1heat2" cx="50%" cy="50%" r="50%"><stop offset="0%" stop-color="#33CCFF" stop-opacity="0.6"/><stop offset="50%" stop-color="#0EA5E9" stop-opacity="0.2"/><stop offset="100%" stop-color="#F7F4EB" stop-opacity="0"/></radialGradient>
        <linearGradient id="s1sweep" x1="0" y1="0" x2="1" y2="0"><stop offset="0%" stop-color="#33CCFF" stop-opacity="0"/><stop offset="60%" stop-color="#33CCFF" stop-opacity="0.05"/><stop offset="100%" stop-color="#33CCFF" stop-opacity="0.4"/></linearGradient>
        <linearGradient id="s1scan" x1="0" y1="0" x2="0" y2="1"><stop offset="0%" stop-color="#33CCFF" stop-opacity="0.3"/><stop offset="100%" stop-color="#33CCFF" stop-opacity="0"/></linearGradient>
        <linearGradient id="s1panelTop" x1="0" y1="0" x2="0" y2="1"><stop offset="0%" stop-color="#F7F4EB" stop-opacity="0.95"/><stop offset="100%" stop-color="#EAE6D9" stop-opacity="0.85"/></linearGradient>
        <clipPath id="s1q1c"><rect x="25" y="52" width="360" height="148"/></clipPath>
        <clipPath id="s1q2c"><rect x="415" y="52" width="360" height="148"/></clipPath>
        <clipPath id="s1q3c"><rect x="25" y="228" width="230" height="122"/></clipPath>
        <clipPath id="s1q4c"><rect x="285" y="228" width="230" height="122"/></clipPath>
    </defs>

    <rect width="800" height="400" fill="none"/>

    <!-- ===== ISOMETRIC DEPTH LAYER: faint perspective grid ===== -->
    <g opacity="0.025" stroke="#1B2A22" stroke-width="0.5">
        <line x1="0" y1="400" x2="400" y2="0"/><line x1="100" y1="400" x2="500" y2="0"/><line x1="200" y1="400" x2="600" y2="0"/>
        <line x1="300" y1="400" x2="700" y2="0"/><line x1="400" y1="400" x2="800" y2="0"/>
        <line x1="800" y1="400" x2="400" y2="0"/><line x1="700" y1="400" x2="300" y2="0"/><line x1="600" y1="400" x2="200" y2="0"/>
        <line x1="500" y1="400" x2="100" y2="0"/><line x1="400" y1="400" x2="0" y2="0"/>
    </g>

    <!-- ===== TOP STATUS BAR (3D raised) ===== -->
    <rect width="800" height="34" fill="url(#s1panelTop)" filter="url(#s1shadow)"/>
    <rect width="800" height="1" y="33" fill="#1B2A22" opacity="0.2"/>
    <rect width="800" height="1" y="34" fill="#F7F4EB" opacity="0.5"/>
    <!-- Left cluster -->
    <circle cx="20" cy="17" r="5" fill="#FF5B62" filter="url(#s1g)"><animate attributeName="opacity" values="1;0.4;1" dur="2s" repeatCount="indefinite"/></circle>
    <circle cx="20" cy="17" r="8" fill="none" stroke="#FF5B62" stroke-width="0.5" opacity="0.3"><animate attributeName="r" values="7;10;7" dur="2s" repeatCount="indefinite"/></circle>
    <text x="35" y="21" fill="#1B2A22" font-family="'Share Tech Mono',monospace" font-size="12" font-weight="bold" letter-spacing="2.5">THE SEARCHLIGHT PROTOCOL</text>
    <!-- Right telemetry -->
    <text x="775" y="13" fill="#1B2A22" font-family="'Share Tech Mono',monospace" font-size="7" opacity="0.4" text-anchor="end" letter-spacing="1">34.0522°N 118.2437°W · ALT 120m</text>
    <text x="775" y="26" fill="#FF5B62" font-family="'Share Tech Mono',monospace" font-size="8" font-weight="bold" text-anchor="end" letter-spacing="0.8">GPU ACTIVE · 92.4% SAVED · 12ms LATENCY</text>
    <!-- Center divider notch -->
    <rect x="395" y="0" width="10" height="34" fill="#1B2A22" opacity="0.03"/>

    <!-- ===== QUADRANT 1 (Top-Left): RAW AERIAL FEED — Elevated 3D Panel ===== -->
    <g filter="url(#s1lift)">
        <rect x="25" y="52" width="360" height="148" rx="5" fill="url(#s1panelTop)"/>
        <rect x="25" y="52" width="360" height="148" rx="5" fill="none" stroke="#1B2A22" stroke-width="1.2" opacity="0.2"/>
        <!-- Top edge highlight -->
        <rect x="26" y="53" width="358" height="1" fill="#FFFFFF" opacity="0.5" rx="1"/>
    </g>
    <rect x="30" y="55" width="72" height="16" rx="2" fill="#1B2A22"/>
    <text x="66" y="66" fill="#F7F4EB" font-family="'Share Tech Mono',monospace" font-size="8" font-weight="bold" text-anchor="middle" letter-spacing="1">STAGE 01</text>
    <text x="112" y="66" fill="#1B2A22" font-family="'Share Tech Mono',monospace" font-size="7" font-weight="bold" opacity="0.55">RAW UAV FEED</text>
    <text x="375" y="66" fill="#1B2A22" font-family="'Share Tech Mono',monospace" font-size="7" opacity="0.3" text-anchor="end">3840×2160 30fps</text>
    <!-- Dense survey grid -->
    <g clip-path="url(#s1q1c)">
        <g stroke="#1B2A22" stroke-width="0.4" opacity="0.08">
            <line x1="25" y1="82" x2="385" y2="82"/><line x1="25" y1="102" x2="385" y2="102"/><line x1="25" y1="122" x2="385" y2="122"/>
            <line x1="25" y1="142" x2="385" y2="142"/><line x1="25" y1="162" x2="385" y2="162"/><line x1="25" y1="182" x2="385" y2="182"/>
            <line x1="65" y1="52" x2="65" y2="200"/><line x1="105" y1="52" x2="105" y2="200"/><line x1="145" y1="52" x2="145" y2="200"/>
            <line x1="185" y1="52" x2="185" y2="200"/><line x1="225" y1="52" x2="225" y2="200"/><line x1="265" y1="52" x2="265" y2="200"/>
            <line x1="305" y1="52" x2="305" y2="200"/><line x1="345" y1="52" x2="345" y2="200"/>
        </g>
        <!-- Isometric terrain hints -->
        <polygon points="60,120 120,95 200,115 180,155 90,145" fill="#1B2A22" opacity="0.03"/>
        <polygon points="220,100 310,80 350,110 300,140 240,130" fill="#1B2A22" opacity="0.025"/>
        <polygon points="140,150 200,135 250,160 220,185 150,175" fill="#1B2A22" opacity="0.02"/>
        <!-- Feature points with rings -->
        <circle cx="180" cy="118" r="1.5" fill="#33CCFF"/><circle cx="180" cy="118" r="5" fill="none" stroke="#33CCFF" stroke-width="0.8"><animate attributeName="r" values="4;8;4" dur="2s" repeatCount="indefinite"/></circle>
        <circle cx="280" cy="98" r="1" fill="#33CCFF"/><circle cx="280" cy="98" r="3.5" fill="none" stroke="#33CCFF" stroke-width="0.6"/>
        <circle cx="130" cy="155" r="1" fill="#33CCFF" opacity="0.7"/><circle cx="130" cy="155" r="3" fill="none" stroke="#33CCFF" stroke-width="0.5" opacity="0.5"/>
        <circle cx="320" cy="165" r="0.8" fill="#33CCFF" opacity="0.4"/>
        <circle cx="90" cy="105" r="0.8" fill="#33CCFF" opacity="0.5"/>
        <!-- Crosshair on primary target -->
        <line x1="168" y1="118" x2="192" y2="118" stroke="#33CCFF" stroke-width="0.8" opacity="0.6"/>
        <line x1="180" y1="106" x2="180" y2="130" stroke="#33CCFF" stroke-width="0.8" opacity="0.6"/>
        <!-- Scanning bar -->
        <rect x="25" y="80" width="360" height="15" fill="url(#s1scan)" opacity="0.8"><animate attributeName="y" values="55;185;55" dur="4s" repeatCount="indefinite"/></rect>
    </g>

    <!-- ===== QUADRANT 2 (Top-Right): LAYERCAM HEATMAP — Elevated ===== -->
    <g filter="url(#s1lift)">
        <rect x="415" y="52" width="360" height="148" rx="5" fill="url(#s1panelTop)"/>
        <rect x="415" y="52" width="360" height="148" rx="5" fill="none" stroke="#1B2A22" stroke-width="1.2" opacity="0.2"/>
        <rect x="416" y="53" width="358" height="1" fill="#FFFFFF" opacity="0.5" rx="1"/>
    </g>
    <rect x="420" y="55" width="72" height="16" rx="2" fill="#FF5B62"/>
    <text x="456" y="66" fill="#F7F4EB" font-family="'Share Tech Mono',monospace" font-size="8" font-weight="bold" text-anchor="middle" letter-spacing="1">STAGE 02</text>
    <text x="502" y="66" fill="#1B2A22" font-family="'Share Tech Mono',monospace" font-size="7" font-weight="bold" opacity="0.55">LAYERCAM ATTENTION</text>
    <text x="765" y="66" fill="#1B2A22" font-family="'Share Tech Mono',monospace" font-size="7" opacity="0.3" text-anchor="end">ATTENTION MAP</text>
    <g clip-path="url(#s1q2c)">
        <rect x="415" y="52" width="360" height="148" fill="#1B2A22" opacity="0.025"/>
        <!-- Multi-layer heat blobs with depth -->
        <ellipse cx="560" cy="112" rx="70" ry="48" fill="url(#s1heat1)" filter="url(#s1g2)"/>
        <ellipse cx="620" cy="88" rx="40" ry="30" fill="url(#s1heat2)"/>
        <circle cx="510" cy="150" r="25" fill="url(#s1heat2)" opacity="0.6"/>
        <ellipse cx="680" cy="130" rx="28" ry="20" fill="url(#s1heat1)" opacity="0.4"/>
        <!-- Contour lines — topographic depth -->
        <ellipse cx="560" cy="112" rx="30" ry="20" fill="none" stroke="#FF5B62" stroke-width="0.8" opacity="0.35" stroke-dasharray="3 3"/>
        <ellipse cx="560" cy="112" rx="48" ry="33" fill="none" stroke="#FF5B62" stroke-width="0.5" opacity="0.2" stroke-dasharray="4 4"/>
        <ellipse cx="560" cy="112" rx="65" ry="45" fill="none" stroke="#F59E0B" stroke-width="0.4" opacity="0.15" stroke-dasharray="5 5"/>
        <!-- Hotspot markers -->
        <circle cx="555" cy="108" r="3.5" fill="#FF5B62" filter="url(#s1g)"><animate attributeName="opacity" values="0.6;1;0.6" dur="1.5s" repeatCount="indefinite"/></circle>
        <circle cx="620" cy="86" r="2.5" fill="#33CCFF" filter="url(#s1g)"><animate attributeName="opacity" values="0.5;0.9;0.5" dur="1.8s" repeatCount="indefinite"/></circle>
        <circle cx="510" cy="148" r="2" fill="#33CCFF" opacity="0.6"/>
        <!-- Activation strength bars -->
        <g transform="translate(730, 80)" opacity="0.5">
            <rect width="3" height="22" fill="#FF5B62" opacity="0.8"/><rect x="5" width="3" height="16" fill="#FF5B62" opacity="0.6"/>
            <rect x="10" width="3" height="28" fill="#FF5B62" opacity="0.9"/><rect x="15" width="3" height="10" fill="#F59E0B" opacity="0.4"/>
            <rect x="20" width="3" height="18" fill="#FF5B62" opacity="0.7"/>
            <text x="0" y="38" fill="#1B2A22" font-family="'Share Tech Mono',monospace" font-size="5" opacity="0.5">ACT</text>
        </g>
    </g>

    <!-- ===== FLOW ARROW Q1 → Q2 (3D raised connector) ===== -->
    <g transform="translate(390, 122)">
        <rect x="-2" y="-8" width="28" height="16" rx="3" fill="#F7F4EB" stroke="#FF5B62" stroke-width="1" opacity="0.8" filter="url(#s1shadow)"/>
        <line x1="3" y1="0" x2="16" y2="0" stroke="#FF5B62" stroke-width="2"/>
        <polygon points="16,-4 24,0 16,4" fill="#FF5B62"/>
    </g>

    <!-- ===== QUADRANT 3 (Bottom-Left): CROP SLICER — Elevated ===== -->
    <g filter="url(#s1lift)">
        <rect x="25" y="228" width="230" height="122" rx="5" fill="url(#s1panelTop)"/>
        <rect x="25" y="228" width="230" height="122" rx="5" fill="none" stroke="#1B2A22" stroke-width="1.2" opacity="0.2"/>
        <rect x="26" y="229" width="228" height="1" fill="#FFFFFF" opacity="0.5" rx="1"/>
    </g>
    <rect x="30" y="231" width="72" height="16" rx="2" fill="#F59E0B"/>
    <text x="66" y="242" fill="#F7F4EB" font-family="'Share Tech Mono',monospace" font-size="8" font-weight="bold" text-anchor="middle" letter-spacing="1">STAGE 03</text>
    <text x="112" y="242" fill="#1B2A22" font-family="'Share Tech Mono',monospace" font-size="7" font-weight="bold" opacity="0.55">SLICER CROP</text>
    <g clip-path="url(#s1q3c)">
        <rect x="25" y="228" width="230" height="122" fill="#1B2A22" opacity="0.015"/>
        <!-- 3D-ish stacked slice layers -->
        <rect x="62" y="262" width="95" height="65" fill="none" stroke="#1B2A22" stroke-width="0.5" opacity="0.1" transform="translate(6,-6)"/>
        <rect x="62" y="262" width="95" height="65" fill="none" stroke="#1B2A22" stroke-width="0.5" opacity="0.15" transform="translate(3,-3)"/>
        <!-- Main crop rect -->
        <rect x="62" y="262" width="95" height="65" fill="#F7F4EB" fill-opacity="0.5" stroke="#FF5B62" stroke-width="1.8" stroke-dasharray="5 3">
            <animate attributeName="stroke-dashoffset" values="8;0" dur="1s" repeatCount="indefinite"/>
        </rect>
        <ellipse cx="110" cy="290" rx="32" ry="22" fill="url(#s1heat1)" opacity="0.45"/>
        <circle cx="106" cy="286" r="3.5" fill="#FF5B62" opacity="0.7"/>
        <!-- Corner brackets (bold) -->
        <path d="M 65 270 L 65 264 L 71 264" fill="none" stroke="#1B2A22" stroke-width="2"/>
        <path d="M 155 270 L 155 264 L 149 264" fill="none" stroke="#1B2A22" stroke-width="2"/>
        <path d="M 65 322 L 65 325 L 71 325" fill="none" stroke="#1B2A22" stroke-width="2"/>
        <path d="M 155 322 L 155 325 L 149 325" fill="none" stroke="#1B2A22" stroke-width="2"/>
        <!-- Dimension labels -->
        <text x="178" y="330" fill="#1B2A22" font-family="'Share Tech Mono',monospace" font-size="8" font-weight="bold" opacity="0.6">256×256px</text>
        <text x="178" y="342" fill="#1B2A22" font-family="'Share Tech Mono',monospace" font-size="6" opacity="0.35">crop slice #14</text>
    </g>

    <!-- ===== FLOW ARROW Q3 → Q4 ===== -->
    <g transform="translate(260, 290)">
        <rect x="-2" y="-8" width="28" height="16" rx="3" fill="#F7F4EB" stroke="#FF5B62" stroke-width="1" opacity="0.8" filter="url(#s1shadow)"/>
        <line x1="3" y1="0" x2="16" y2="0" stroke="#FF5B62" stroke-width="2"/>
        <polygon points="16,-4 24,0 16,4" fill="#FF5B62"/>
    </g>

    <!-- ===== QUADRANT 4 (Bottom-Center): YOLO DETECTION — Elevated ===== -->
    <g filter="url(#s1lift)">
        <rect x="285" y="228" width="230" height="122" rx="5" fill="url(#s1panelTop)"/>
        <rect x="285" y="228" width="230" height="122" rx="5" fill="none" stroke="#1B2A22" stroke-width="1.2" opacity="0.2"/>
        <rect x="286" y="229" width="228" height="1" fill="#FFFFFF" opacity="0.5" rx="1"/>
    </g>
    <rect x="290" y="231" width="72" height="16" rx="2" fill="#FF5B62"/>
    <text x="326" y="242" fill="#F7F4EB" font-family="'Share Tech Mono',monospace" font-size="8" font-weight="bold" text-anchor="middle" letter-spacing="1">STAGE 04</text>
    <text x="372" y="242" fill="#1B2A22" font-family="'Share Tech Mono',monospace" font-size="7" font-weight="bold" opacity="0.55">YOLOv8 INFERENCE</text>
    <g clip-path="url(#s1q4c)">
        <rect x="285" y="228" width="230" height="122" fill="#1B2A22" opacity="0.015"/>
        <!-- Detection bounding boxes — layered 3D -->
        <rect x="320" y="264" width="70" height="52" fill="none" stroke="#FF5B62" stroke-width="2.5"/>
        <rect x="320" y="254" width="50" height="12" fill="#FF5B62"/>
        <text x="345" y="263" fill="#F7F4EB" font-family="'Share Tech Mono',monospace" font-size="8" font-weight="bold" text-anchor="middle">obj 0.96</text>
        <rect x="322" y="266" width="66" height="48" fill="#FF5B62" opacity="0.04"/>
        <!-- Inner object shimmer -->
        <circle cx="355" cy="288" r="8" fill="#FF5B62" opacity="0.1"/>
        <circle cx="355" cy="288" r="4" fill="#FF5B62" opacity="0.15"/>
        <!-- Secondary detection -->
        <rect x="405" y="278" width="45" height="35" fill="none" stroke="#33CCFF" stroke-width="1.5" opacity="0.6"/>
        <rect x="405" y="271" width="35" height="9" fill="#33CCFF" opacity="0.7"/>
        <text x="422" y="278" fill="#F7F4EB" font-family="'Share Tech Mono',monospace" font-size="6" font-weight="bold" text-anchor="middle">0.82</text>
        <!-- NMS info -->
        <text x="300" y="342" fill="#FF5B62" font-family="'Share Tech Mono',monospace" font-size="7" font-weight="bold" opacity="0.6">NMS: 0.45</text>
        <text x="300" y="352" fill="#1B2A22" font-family="'Share Tech Mono',monospace" font-size="6" opacity="0.3">conf_thresh: 0.25</text>
    </g>

    <!-- ===== RIGHT PANEL: METRICS (3D raised card with depth) ===== -->
    <g filter="url(#s1lift)">
        <rect x="545" y="228" width="235" height="122" rx="5" fill="url(#s1panelTop)"/>
        <rect x="545" y="228" width="235" height="122" rx="5" fill="none" stroke="#1B2A22" stroke-width="1.2" opacity="0.2"/>
        <rect x="546" y="229" width="233" height="1" fill="#FFFFFF" opacity="0.5" rx="1"/>
    </g>
    <!-- Inner top bar -->
    <rect x="545" y="228" width="235" height="20" rx="5" fill="#1B2A22" opacity="0.04"/>
    <text x="662" y="241" fill="#1B2A22" font-family="'Share Tech Mono',monospace" font-size="8" font-weight="bold" letter-spacing="2" text-anchor="middle">SYSTEM METRICS</text>
    <g font-family="'Share Tech Mono',monospace" transform="translate(557, 256)">
        <text y="8" fill="#1B2A22" font-size="7" font-weight="bold" opacity="0.45" letter-spacing="0.5">TARGETS</text>
        <text x="210" y="8" fill="#FF5B62" font-size="12" font-weight="bold" text-anchor="end">3</text>
        <line x1="0" y1="14" x2="211" y2="14" stroke="#1B2A22" stroke-width="0.4" opacity="0.1"/>
        <text y="26" fill="#1B2A22" font-size="7" font-weight="bold" opacity="0.45" letter-spacing="0.5">INFERENCE</text>
        <text x="210" y="26" fill="#33CCFF" font-size="12" font-weight="bold" text-anchor="end">12ms</text>
        <line x1="0" y1="32" x2="211" y2="32" stroke="#1B2A22" stroke-width="0.4" opacity="0.1"/>
        <text y="44" fill="#1B2A22" font-size="7" font-weight="bold" opacity="0.45" letter-spacing="0.5">SAVED COMPUTE</text>
        <text x="210" y="44" fill="#FF5B62" font-size="12" font-weight="bold" text-anchor="end">92.4%</text>
        <line x1="0" y1="50" x2="211" y2="50" stroke="#1B2A22" stroke-width="0.4" opacity="0.1"/>
        <!-- Sparkline with fill -->
        <polygon points="0,82 20,78 40,85 60,72 80,78 100,66 120,74 140,60 160,68 180,58 210,64 210,88 0,88" fill="#FF5B62" opacity="0.06"/>
        <polyline points="0,82 20,78 40,85 60,72 80,78 100,66 120,74 140,60 160,68 180,58 210,64" fill="none" stroke="#FF5B62" stroke-width="1.5"/>
        <circle cx="210" cy="64" r="3" fill="#FF5B62" filter="url(#s1g)"/>
        <text y="95" fill="#1B2A22" font-size="6" opacity="0.3" letter-spacing="0.5">LATENCY DRIFT (60S)</text>
    </g>

    <!-- ===== VERTICAL FLOW: Q1 → Q3 (descending pipeline) ===== -->
    <line x1="205" y1="200" x2="140" y2="228" stroke="#FF5B62" stroke-width="1.2" stroke-dasharray="4 4" opacity="0.25">
        <animate attributeName="stroke-dashoffset" values="8;0" dur="0.8s" repeatCount="indefinite"/>
    </line>
    <!-- Q2 → Q4 -->
    <line x1="595" y1="200" x2="400" y2="228" stroke="#FF5B62" stroke-width="1.2" stroke-dasharray="4 4" opacity="0.25">
        <animate attributeName="stroke-dashoffset" values="8;0" dur="0.8s" repeatCount="indefinite"/>
    </line>

    <!-- ===== BOTTOM BAR ===== -->
    <rect x="0" y="366" width="800" height="34" fill="url(#s1panelTop)" filter="url(#s1shadow)"/>
    <rect x="0" y="365" width="800" height="1" fill="#1B2A22" opacity="0.15"/>
    <text x="400" y="386" fill="#1B2A22" font-family="'Share Tech Mono',monospace" font-size="8" font-weight="bold" opacity="0.35" letter-spacing="2.5" text-anchor="middle">AERIAL INTELLIGENCE SYSTEM · COARSE-TO-FINE DETECTION PIPELINE</text>
    <!-- Pipeline flow mini-diagram in bottom bar -->
    <g transform="translate(400, 376)" opacity="0.2">
        <circle cx="-250" cy="0" r="2" fill="#33CCFF"/><line x1="-247" y1="0" x2="-200" y2="0" stroke="#1B2A22" stroke-width="0.5"/>
        <circle cx="-197" cy="0" r="2" fill="#FF5B62"/><line x1="-194" y1="0" x2="-147" y2="0" stroke="#1B2A22" stroke-width="0.5"/>
        <circle cx="-144" cy="0" r="2" fill="#F59E0B"/><line x1="-141" y1="0" x2="-94" y2="0" stroke="#1B2A22" stroke-width="0.5"/>
        <circle cx="-91" cy="0" r="2" fill="#FF5B62"/>
    </g>
</svg>
